<?xml version="1.0" encoding="utf-8"?>
<!-- Generator: Adobe Illustrator 22.1.0, SVG Export Plug-In . SVG Version: 6.00 Build 0)  -->
<svg version="1.1" id="Layer_1" xmlns="http://www.w3.org/2000/svg" xmlns:xlink="http://www.w3.org/1999/xlink" x="0px" y="0px"
	 viewBox="0 0 320 220" style="enable-background:new 0 0 320 220;" xml:space="preserve">
<style type="text/css">
	.st0{fill:url(#SVGID_1_);}
	.st1{fill:url(#SVGID_2_);}
	.st2{fill:url(#SVGID_3_);}
	.st3{fill:url(#SVGID_4_);}
	.st4{fill:url(#SVGID_5_);}
	.st5{fill:url(#SVGID_6_);}
	.st6{fill:url(#SVGID_7_);}
	.st7{fill:url(#SVGID_8_);}
	.st8{fill:url(#SVGID_9_);}
	.st9{fill:url(#SVGID_10_);}
	.st10{fill:url(#SVGID_11_);}
	.st11{fill:url(#SVGID_12_);}
	.st12{fill:url(#SVGID_13_);}
	.st13{fill:url(#SVGID_14_);}
	.st14{fill:url(#SVGID_15_);}
	.st15{fill:url(#SVGID_16_);}
	.st16{fill:url(#SVGID_17_);}
	.st17{fill:url(#SVGID_18_);}
	.st18{fill:url(#SVGID_19_);}
	.st19{fill:url(#SVGID_20_);}
	.st20{fill:url(#SVGID_21_);}
	.st21{fill:#5E50A1;}
	.st22{fill:url(#SVGID_22_);}
	.st23{fill:#FFFFFF;}
	.st24{fill:url(#SVGID_23_);}
	.st25{fill:url(#SVGID_24_);}
	.st26{fill:url(#SVGID_25_);}
</style>
<g>
	<linearGradient id="SVGID_1_" gradientUnits="userSpaceOnUse" x1="218.2542" y1="140.6406" x2="113.2542" y2="169.1406">
		<stop  offset="0" style="stop-color:#ED1A3B"/>
		<stop  offset="1" style="stop-color:#5E50A1"/>
	</linearGradient>
	<path class="st0" d="M104.1,171.9c0,1.6-0.4,2.9-1.1,3.9c-0.7,1-1.7,1.4-2.9,1.4c-0.8,0-1.5-0.2-2.2-0.5s-1.1-0.8-1.4-1.3v5.7H96
		v-14.6h0.4l0.1,1.9c0.4-0.7,0.8-1.2,1.4-1.5s1.3-0.6,2.2-0.6c1.2,0,2.2,0.5,2.9,1.5s1.1,2.3,1.1,4V171.9z M103.6,171.7
		c0-1.5-0.3-2.7-0.9-3.6c-0.6-0.9-1.4-1.4-2.6-1.4c-1,0-1.8,0.3-2.4,0.8c-0.6,0.5-1,1.1-1.2,1.9v4.9c0.3,0.7,0.7,1.3,1.3,1.7
		c0.6,0.4,1.4,0.6,2.3,0.6c1.1,0,2-0.4,2.5-1.3s0.9-2,0.9-3.5V171.7z"/>
	<linearGradient id="SVGID_2_" gradientUnits="userSpaceOnUse" x1="218.7972" y1="142.6411" x2="113.7972" y2="171.1411">
		<stop  offset="0" style="stop-color:#ED1A3B"/>
		<stop  offset="1" style="stop-color:#5E50A1"/>
	</linearGradient>
	<path class="st1" d="M113.6,175c-0.4,0.6-0.9,1.2-1.6,1.6s-1.6,0.6-2.6,0.6c-1,0-1.8-0.3-2.3-0.8s-0.8-1.3-0.8-2.2
		c0-0.9,0.4-1.6,1.3-2.2c0.8-0.6,1.9-0.9,3.1-0.9h3v-1.5c0-0.9-0.3-1.6-0.8-2.1c-0.6-0.5-1.4-0.7-2.4-0.7c-1,0-1.7,0.2-2.3,0.7
		c-0.6,0.5-0.9,1.1-0.9,1.8l-0.4,0l0,0c0-0.8,0.3-1.5,1-2.1c0.7-0.6,1.6-0.9,2.7-0.9c1.1,0,2,0.3,2.7,0.9c0.7,0.6,1,1.4,1,2.5v5.3
		c0,0.4,0,0.7,0.1,1.1s0.1,0.7,0.2,1h-0.6c-0.1-0.5-0.1-0.8-0.2-1c0-0.2,0-0.5,0-0.7V175z M109.4,176.7c1,0,1.9-0.2,2.7-0.7
		c0.7-0.5,1.3-1.1,1.6-2v-2.4h-3c-1.1,0-2,0.3-2.8,0.8c-0.8,0.5-1.1,1.1-1.1,1.9c0,0.7,0.2,1.3,0.7,1.7
		C107.9,176.5,108.6,176.7,109.4,176.7z"/>
	<linearGradient id="SVGID_3_" gradientUnits="userSpaceOnUse" x1="219.963" y1="146.9363" x2="114.963" y2="175.4363">
		<stop  offset="0" style="stop-color:#ED1A3B"/>
		<stop  offset="1" style="stop-color:#5E50A1"/>
	</linearGradient>
	<path class="st2" d="M117,171.7c0-1.7,0.4-3,1.1-4s1.7-1.5,2.9-1.5c0.8,0,1.5,0.2,2.1,0.6s1.1,0.9,1.4,1.5l0.1-1.9h0.4v10.6
		c0,1.3-0.4,2.4-1.1,3.1s-1.7,1.1-2.9,1.1c-0.5,0-1-0.1-1.6-0.2s-1-0.3-1.5-0.4l0.2-0.5c0.5,0.2,0.9,0.4,1.4,0.5
		c0.4,0.1,0.9,0.2,1.5,0.2c1.1,0,2-0.3,2.6-1s0.9-1.5,0.9-2.7v-1.7c-0.4,0.6-0.8,1-1.5,1.3c-0.6,0.3-1.3,0.5-2.1,0.5
		c-1.2,0-2.2-0.5-2.9-1.4c-0.7-1-1-2.2-1-3.9V171.7z M117.6,171.9c0,1.5,0.3,2.6,0.9,3.5s1.4,1.3,2.5,1.3c0.9,0,1.7-0.2,2.3-0.6
		c0.6-0.4,1-1,1.3-1.7v-5c-0.3-0.7-0.7-1.4-1.2-1.9c-0.6-0.5-1.3-0.8-2.3-0.8c-1.1,0-2,0.5-2.6,1.4c-0.6,0.9-0.9,2.1-0.9,3.6V171.9z
		"/>
	<linearGradient id="SVGID_4_" gradientUnits="userSpaceOnUse" x1="220.2094" y1="147.8441" x2="115.2094" y2="176.3441">
		<stop  offset="0" style="stop-color:#ED1A3B"/>
		<stop  offset="1" style="stop-color:#5E50A1"/>
	</linearGradient>
	<path class="st3" d="M132.1,177.2c-1.2,0-2.2-0.5-3.1-1.5c-0.9-1-1.3-2.2-1.3-3.6v-0.6c0-1.5,0.4-2.8,1.3-3.8
		c0.8-1,1.9-1.5,3.1-1.5c1.2,0,2.2,0.4,2.9,1.2s1.1,1.8,1.1,3.1v0.8h-7.9v0.1v0.6c0,1.3,0.4,2.4,1.1,3.2c0.7,0.9,1.7,1.3,2.8,1.3
		c0.8,0,1.4-0.1,2-0.3s1-0.5,1.4-1l0.3,0.4c-0.4,0.5-0.9,0.8-1.5,1C133.6,177.1,132.9,177.2,132.1,177.2z M132.1,166.8
		c-1,0-1.9,0.4-2.6,1.1c-0.7,0.8-1.1,1.7-1.2,2.9l0,0.1h7.3v-0.3c0-1.1-0.3-2-1-2.7S133.1,166.8,132.1,166.8z"/>
	<linearGradient id="SVGID_5_" gradientUnits="userSpaceOnUse" x1="221.2326" y1="151.6135" x2="116.2326" y2="180.1135">
		<stop  offset="0" style="stop-color:#ED1A3B"/>
		<stop  offset="1" style="stop-color:#5E50A1"/>
	</linearGradient>
	<path class="st4" d="M143.8,166.4l0.1,2.2c0.3-0.8,0.8-1.3,1.4-1.8c0.6-0.4,1.4-0.6,2.3-0.6c1.2,0,2,0.4,2.6,1.1
		c0.6,0.7,0.9,1.9,0.9,3.5v6.2h-0.5v-6.2c0-1.5-0.3-2.5-0.8-3.1c-0.5-0.6-1.2-0.9-2.1-0.9c-1.1,0-2,0.3-2.6,1
		c-0.6,0.7-0.9,1.6-1.1,2.6v6.6h-0.5v-10.6H143.8z"/>
	<linearGradient id="SVGID_6_" gradientUnits="userSpaceOnUse" x1="221.9835" y1="154.3801" x2="116.9835" y2="182.8801">
		<stop  offset="0" style="stop-color:#ED1A3B"/>
		<stop  offset="1" style="stop-color:#5E50A1"/>
	</linearGradient>
	<path class="st5" d="M153.5,171.5c0-1.5,0.4-2.8,1.3-3.8c0.9-1,2-1.5,3.3-1.5c1.4,0,2.5,0.5,3.3,1.5c0.9,1,1.3,2.2,1.3,3.8v0.4
		c0,1.6-0.4,2.8-1.3,3.8c-0.9,1-2,1.5-3.3,1.5c-1.4,0-2.5-0.5-3.3-1.5c-0.9-1-1.3-2.3-1.3-3.8V171.5z M154,171.9
		c0,1.3,0.4,2.5,1.1,3.4c0.7,0.9,1.7,1.4,3,1.4c1.2,0,2.2-0.5,3-1.4c0.7-0.9,1.1-2,1.1-3.4v-0.4c0-1.3-0.4-2.4-1.1-3.3
		c-0.7-0.9-1.7-1.4-3-1.4c-1.2,0-2.2,0.5-3,1.4c-0.7,0.9-1.1,2-1.1,3.3V171.9z"/>
	<linearGradient id="SVGID_7_" gradientUnits="userSpaceOnUse" x1="222.2719" y1="155.4427" x2="117.2719" y2="183.9427">
		<stop  offset="0" style="stop-color:#ED1A3B"/>
		<stop  offset="1" style="stop-color:#5E50A1"/>
	</linearGradient>
	<path class="st6" d="M166.3,163.6v2.9h2.6v0.5h-2.6v7.3c0,0.9,0.1,1.5,0.4,1.9c0.3,0.4,0.7,0.6,1.2,0.6c0.2,0,0.3,0,0.5,0
		c0.1,0,0.3,0,0.6-0.1l0.1,0.5c-0.2,0.1-0.3,0.1-0.5,0.1s-0.4,0-0.6,0c-0.7,0-1.2-0.2-1.6-0.7c-0.4-0.5-0.6-1.2-0.6-2.2V167h-2v-0.5
		h2v-2.9H166.3z"/>
	<linearGradient id="SVGID_8_" gradientUnits="userSpaceOnUse" x1="222.761" y1="157.2448" x2="117.761" y2="185.7448">
		<stop  offset="0" style="stop-color:#ED1A3B"/>
		<stop  offset="1" style="stop-color:#5E50A1"/>
	</linearGradient>
	<path class="st7" d="M177,177v-10h-1.8v-0.5h1.8v-1.7c0-1,0.2-1.8,0.7-2.3s1.2-0.8,2-0.8c0.2,0,0.4,0,0.6,0c0.2,0,0.4,0.1,0.6,0.1
		l-0.1,0.5c-0.2-0.1-0.4-0.1-0.6-0.1c-0.2,0-0.4,0-0.6,0c-0.7,0-1.3,0.2-1.7,0.7c-0.4,0.5-0.6,1.1-0.6,1.9v1.7h2.8v0.5h-2.8v10H177z
		"/>
	<linearGradient id="SVGID_9_" gradientUnits="userSpaceOnUse" x1="223.9194" y1="161.5124" x2="118.9194" y2="190.0124">
		<stop  offset="0" style="stop-color:#ED1A3B"/>
		<stop  offset="1" style="stop-color:#5E50A1"/>
	</linearGradient>
	<path class="st8" d="M181.7,171.5c0-1.5,0.4-2.8,1.3-3.8c0.9-1,2-1.5,3.3-1.5c1.4,0,2.5,0.5,3.3,1.5c0.9,1,1.3,2.2,1.3,3.8v0.4
		c0,1.6-0.4,2.8-1.3,3.8c-0.9,1-2,1.5-3.3,1.5c-1.4,0-2.5-0.5-3.3-1.5c-0.9-1-1.3-2.3-1.3-3.8V171.5z M182.2,171.9
		c0,1.3,0.4,2.5,1.1,3.4c0.7,0.9,1.7,1.4,3,1.4c1.2,0,2.2-0.5,3-1.4c0.7-0.9,1.1-2,1.1-3.4v-0.4c0-1.3-0.4-2.4-1.1-3.3
		c-0.7-0.9-1.7-1.4-3-1.4c-1.2,0-2.2,0.5-3,1.4c-0.7,0.9-1.1,2-1.1,3.3V171.9z"/>
	<linearGradient id="SVGID_10_" gradientUnits="userSpaceOnUse" x1="224.6688" y1="164.2735" x2="119.6688" y2="192.7735">
		<stop  offset="0" style="stop-color:#ED1A3B"/>
		<stop  offset="1" style="stop-color:#5E50A1"/>
	</linearGradient>
	<path class="st9" d="M200.6,175.1c-0.3,0.7-0.8,1.2-1.4,1.6c-0.6,0.4-1.4,0.5-2.2,0.5c-1.1,0-1.9-0.4-2.6-1.2s-0.9-2-0.9-3.6v-6
		h0.5v6c0,1.4,0.3,2.5,0.8,3.2s1.2,1,2.1,1c1.1,0,1.9-0.3,2.5-0.8c0.6-0.5,1-1.3,1.1-2.1v-7.3h0.5V177h-0.4L200.6,175.1z"/>
	<linearGradient id="SVGID_11_" gradientUnits="userSpaceOnUse" x1="225.422" y1="167.0484" x2="120.422" y2="195.5484">
		<stop  offset="0" style="stop-color:#ED1A3B"/>
		<stop  offset="1" style="stop-color:#5E50A1"/>
	</linearGradient>
	<path class="st10" d="M204.9,166.4l0.1,2.2c0.3-0.8,0.8-1.3,1.4-1.8c0.6-0.4,1.4-0.6,2.3-0.6c1.2,0,2,0.4,2.6,1.1
		c0.6,0.7,0.9,1.9,0.9,3.5v6.2h-0.5v-6.2c0-1.5-0.3-2.5-0.8-3.1c-0.5-0.6-1.2-0.9-2.1-0.9c-1.1,0-2,0.3-2.6,1
		c-0.6,0.7-0.9,1.6-1.1,2.6v6.6h-0.5v-10.6H204.9z"/>
	<linearGradient id="SVGID_12_" gradientUnits="userSpaceOnUse" x1="225.8251" y1="168.5333" x2="120.8251" y2="197.0333">
		<stop  offset="0" style="stop-color:#ED1A3B"/>
		<stop  offset="1" style="stop-color:#5E50A1"/>
	</linearGradient>
	<path class="st11" d="M214.9,171.7c0-1.7,0.4-3,1.1-4s1.7-1.5,2.9-1.5c0.8,0,1.5,0.2,2.1,0.6s1.1,0.9,1.4,1.5v-6.6h0.5V177h-0.5
		l0-1.6c-0.4,0.6-0.8,1-1.5,1.3s-1.3,0.5-2.2,0.5c-1.2,0-2.2-0.5-2.9-1.4c-0.7-1-1-2.2-1-3.9V171.7z M215.4,171.9
		c0,1.5,0.3,2.6,0.9,3.5s1.4,1.3,2.5,1.3c0.9,0,1.7-0.2,2.3-0.6c0.6-0.4,1-1,1.3-1.7v-5c-0.3-0.8-0.7-1.4-1.2-1.9
		c-0.6-0.5-1.4-0.8-2.4-0.8c-1.1,0-2,0.5-2.6,1.4c-0.6,0.9-0.9,2.1-0.9,3.6V171.9z"/>
</g>
<g>
	<linearGradient id="SVGID_13_" gradientUnits="userSpaceOnUse" x1="226.5796" y1="167.7482" x2="121.5796" y2="196.2482">
		<stop  offset="0" style="stop-color:#ED1A3B"/>
		<stop  offset="1" style="stop-color:#5E50A1"/>
	</linearGradient>
	<path class="st12" d="M138.1,195.3c0-0.6-0.2-1.1-0.7-1.5s-1.3-0.8-2.5-1.1c-1.3-0.3-2.2-0.6-2.7-1s-0.8-1-0.8-1.9
		c0-0.8,0.3-1.4,1-1.9c0.6-0.5,1.5-0.8,2.6-0.8c1.2,0,2.1,0.3,2.8,0.8s1,1.3,1,2.1l0,0.1h-0.4c0-0.7-0.3-1.3-0.9-1.8
		c-0.6-0.5-1.4-0.7-2.4-0.7c-1,0-1.7,0.2-2.2,0.6c-0.5,0.4-0.8,0.9-0.8,1.5c0,0.6,0.2,1,0.6,1.4s1.3,0.7,2.6,1
		c1.2,0.3,2.1,0.6,2.7,1.1c0.6,0.5,0.9,1.1,0.9,2c0,0.8-0.3,1.5-1,2c-0.7,0.5-1.6,0.8-2.7,0.8c-1.2,0-2.2-0.3-2.9-0.8
		c-0.7-0.6-1-1.2-1-2l0-0.1h0.4c0.1,0.8,0.4,1.4,1.1,1.8s1.4,0.6,2.4,0.6c1,0,1.8-0.2,2.3-0.7C137.9,196.4,138.1,195.9,138.1,195.3z
		"/>
	<linearGradient id="SVGID_14_" gradientUnits="userSpaceOnUse" x1="227.2981" y1="170.3951" x2="122.2981" y2="198.8951">
		<stop  offset="0" style="stop-color:#ED1A3B"/>
		<stop  offset="1" style="stop-color:#5E50A1"/>
	</linearGradient>
	<path class="st13" d="M140.8,192.4c0-1.5,0.4-2.8,1.3-3.8c0.9-1,2-1.5,3.3-1.5c1.4,0,2.5,0.5,3.3,1.5c0.9,1,1.3,2.2,1.3,3.8v0.4
		c0,1.6-0.4,2.8-1.3,3.8c-0.9,1-2,1.5-3.3,1.5c-1.4,0-2.5-0.5-3.3-1.5c-0.9-1-1.3-2.3-1.3-3.8V192.4z M141.3,192.8
		c0,1.3,0.4,2.5,1.1,3.4c0.7,0.9,1.7,1.4,3,1.4c1.2,0,2.2-0.5,3-1.4c0.7-0.9,1.1-2,1.1-3.4v-0.4c0-1.3-0.4-2.4-1.1-3.3
		c-0.7-0.9-1.7-1.4-3-1.4c-1.2,0-2.2,0.5-3,1.4c-0.7,0.9-1.1,2-1.1,3.3V192.8z"/>
	<linearGradient id="SVGID_15_" gradientUnits="userSpaceOnUse" x1="227.8057" y1="172.2651" x2="122.8057" y2="200.7651">
		<stop  offset="0" style="stop-color:#ED1A3B"/>
		<stop  offset="1" style="stop-color:#5E50A1"/>
	</linearGradient>
	<path class="st14" d="M157.2,187.7l-0.7-0.1c-0.9,0-1.7,0.3-2.3,0.9c-0.6,0.6-1,1.4-1.1,2.4v6.9h-0.5v-10.6h0.4l0.1,1.8v0.4
		c0.3-0.8,0.7-1.3,1.3-1.8s1.3-0.6,2.1-0.6c0.1,0,0.3,0,0.4,0c0.1,0,0.2,0,0.3,0.1L157.2,187.7z"/>
	<linearGradient id="SVGID_16_" gradientUnits="userSpaceOnUse" x1="228.2613" y1="173.9439" x2="123.2613" y2="202.4439">
		<stop  offset="0" style="stop-color:#ED1A3B"/>
		<stop  offset="1" style="stop-color:#5E50A1"/>
	</linearGradient>
	<path class="st15" d="M163.9,187.7l-0.7-0.1c-0.9,0-1.7,0.3-2.3,0.9c-0.6,0.6-1,1.4-1.1,2.4v6.9h-0.5v-10.6h0.4l0.1,1.8v0.4
		c0.3-0.8,0.7-1.3,1.3-1.8c0.6-0.4,1.3-0.6,2.1-0.6c0.1,0,0.3,0,0.4,0c0.1,0,0.2,0,0.3,0.1L163.9,187.7z"/>
	<linearGradient id="SVGID_17_" gradientUnits="userSpaceOnUse" x1="229.2243" y1="177.4917" x2="124.2243" y2="205.9917">
		<stop  offset="0" style="stop-color:#ED1A3B"/>
		<stop  offset="1" style="stop-color:#5E50A1"/>
	</linearGradient>
	<path class="st16" d="M168.8,196l0.4,1.1h0.1l0.1-0.2l3.7-9.6h0.6l-4.7,12.3c-0.3,0.7-0.6,1.3-1,1.8c-0.4,0.5-1,0.7-1.8,0.7
		c-0.1,0-0.3,0-0.4,0c-0.1,0-0.3,0-0.3-0.1l0.1-0.5c0.1,0,0.2,0,0.3,0.1s0.3,0,0.3,0c0.6,0,1.1-0.2,1.4-0.5s0.6-0.9,0.9-1.6l0.6-1.7
		l-4.2-10.5h0.6L168.8,196z"/>
	<linearGradient id="SVGID_18_" gradientUnits="userSpaceOnUse" x1="229.7098" y1="179.2802" x2="124.7098" y2="207.7802">
		<stop  offset="0" style="stop-color:#ED1A3B"/>
		<stop  offset="1" style="stop-color:#5E50A1"/>
	</linearGradient>
	<path class="st17" d="M180.9,188.6h-0.8v-1.3h0.8V188.6z M180.9,197.9h-0.8v-1.3h0.8V197.9z"/>
	<linearGradient id="SVGID_19_" gradientUnits="userSpaceOnUse" x1="230.1123" y1="180.7632" x2="125.1123" y2="209.2632">
		<stop  offset="0" style="stop-color:#ED1A3B"/>
		<stop  offset="1" style="stop-color:#5E50A1"/>
	</linearGradient>
	<path class="st18" d="M183.7,192.2c0-2.2,0.4-4.3,1.2-6.2c0.8-1.9,1.7-3.2,2.8-3.9h0.1l0.2,0.4c-1,0.7-1.9,1.9-2.6,3.8
		s-1.1,3.8-1.1,5.9v0.3c0,2.1,0.4,4,1.1,5.9s1.6,3.1,2.6,3.8l-0.2,0.4h-0.1c-1.1-0.7-2.1-2-2.8-3.8c-0.8-1.9-1.2-3.9-1.2-6.2V192.2z
		"/>
</g>
<g>
	<g>
		
			<linearGradient id="SVGID_20_" gradientUnits="userSpaceOnUse" x1="155.186" y1="92.8411" x2="137.7494" y2="85.3415" gradientTransform="matrix(-1 0 0 -1 320.2712 218.7854)">
			<stop  offset="0" style="stop-color:#ED1A3B"/>
			<stop  offset="1" style="stop-color:#F4AF1C"/>
		</linearGradient>
		<path class="st19" d="M164.1,109.5c1.2,0.6,2.3,1.1,3.3,1.6c4.8,2.4,9.6,4.9,14.5,7.3c0.2,0.1,0.3,0.3,0.3,0.5c0,10,0,20,0,30
			c0,0.1,0,0.2,0,0.4c-0.2-0.1-0.3-0.1-0.4-0.2c-5.8-2.9-11.5-5.8-17.3-8.7c-0.3-0.1-0.4-0.3-0.4-0.6c0-9.9,0-19.9,0-29.8
			C164.1,109.9,164.1,109.7,164.1,109.5z"/>
		
			<linearGradient id="SVGID_21_" gradientUnits="userSpaceOnUse" x1="165.4041" y1="93.4993" x2="182.4657" y2="85.6247" gradientTransform="matrix(-1 0 0 -1 320.2712 218.7854)">
			<stop  offset="0" style="stop-color:#ED1A3B"/>
			<stop  offset="1" style="stop-color:#F4AF1C"/>
		</linearGradient>
		<path class="st20" d="M154.8,109.5c0,0.2,0,0.3,0,0.5c0,9.9,0,19.9,0,29.8c0,0.3-0.1,0.5-0.4,0.7c-5.7,2.9-11.4,5.8-17.2,8.7
			c-0.1,0.1-0.3,0.1-0.5,0.2c0-0.3,0-0.5,0-0.7c0-9,0-18.1,0-27.1c0-0.7,0-1.4,0-2.1c0-0.1,0.1-0.3,0.2-0.4
			c5.9-3.2,11.8-6.4,17.6-9.6C154.7,109.5,154.7,109.5,154.8,109.5z"/>
		<path class="st21" d="M163,139.9c-2.4-0.6-4.7-0.7-7.1,0c0-0.1,0-0.3,0-0.4c0-9.8,0-19.7-0.1-29.5c0-0.9,0-1,0.9-1.1
			c1.8-0.3,3.7-0.5,5.5,0c0.7,0.2,0.7,0.2,0.7,0.9c0,3.1,0.1,6.1,0.1,9.2c0,6.9,0,13.8,0,20.6C163,139.7,163,139.9,163,139.9z"/>
		
			<linearGradient id="SVGID_22_" gradientUnits="userSpaceOnUse" x1="160.7" y1="77.4174" x2="160.7" y2="67.1037" gradientTransform="matrix(-1 0 0 -1 320.2712 218.7854)">
			<stop  offset="0" style="stop-color:#ED1A3B"/>
			<stop  offset="1" style="stop-color:#5E50A1"/>
		</linearGradient>
		<path class="st22" d="M138.8,151.3c-0.2-0.4-0.4-0.7-0.6-1.1c6-3.2,12-6.3,18-9.5c0.7,0.7,1.6,0.8,2.6,0.9c1.2,0.1,2.4,0,3.6-0.5
			c0.1,0,0.3-0.1,0.3-0.2c0.3-0.5,0.5-0.2,0.8-0.1c3.7,2,7.5,4,11.3,6c1.9,1,3.8,2,5.8,3c0.1,0.1,0.3,0.1,0.4,0.2
			c-0.2,0.4-0.4,0.7-0.5,1.1c-5.8-3-11.6-6-17.3-9c0,0.1-0.1,0.2-0.1,0.2c4.6,2.9,9.3,5.8,13.9,8.7c-0.2,0.4-0.4,0.7-0.7,1.1
			c-0.2-0.1-0.3-0.2-0.4-0.2c-4.8-3-9.5-6-14.3-8.9c-0.2-0.1-0.5-0.2-0.7-0.2c-0.9,0-1.8,0-2.6,0c-0.2,0-0.4,0.1-0.6,0.2
			c-4.2,2.6-8.4,5.3-12.6,8c-0.7,0.4-1.4,0.9-2.1,1.3c0,0-0.1,0-0.1,0c-0.7-1-0.7-1,0.3-1.6c4.2-2.7,8.5-5.4,12.7-8
			c0.1-0.1,0.2-0.2,0.3-0.2c0-0.1,0-0.1,0-0.1c0,0,0,0,0,0c0,0-0.1,0-0.1,0c0,0-0.1,0-0.1,0C150.2,145.2,144.5,148.2,138.8,151.3z"
			/>
	</g>
</g>
<path class="st23" d="M160.6,158.2c0-0.6-0.5-1.1-1.1-1.2c-0.7,0-1.2,0.4-1.2,1.1c0,0.6,0.5,1.2,1.1,1.2
	C160.1,159.4,160.6,158.8,160.6,158.2z"/>
<path class="st23" d="M160.6,158.2c0-0.6-0.5-1.1-1.1-1.2c-0.7,0-1.2,0.4-1.2,1.1c0,0.6,0.5,1.2,1.1,1.2
	C160.1,159.4,160.6,158.8,160.6,158.2z"/>
<g>
	<linearGradient id="SVGID_23_" gradientUnits="userSpaceOnUse" x1="226.9023" y1="9.5313" x2="82.4023" y2="77.5313">
		<stop  offset="0" style="stop-color:#ED1A3B"/>
		<stop  offset="1" style="stop-color:#5E50A1"/>
	</linearGradient>
	<path class="st24" d="M116,76h12.3v2.6H116V98h-2.6V78.6H78.9v-1.5l33.9-50.2h3.2V76z M83,76h30.4V30.6l-0.3-0.1l-3.8,6.3L83,76z"
		/>
	<linearGradient id="SVGID_24_" gradientUnits="userSpaceOnUse" x1="234.8305" y1="26.3787" x2="90.3305" y2="94.3787">
		<stop  offset="0" style="stop-color:#ED1A3B"/>
		<stop  offset="1" style="stop-color:#5E50A1"/>
	</linearGradient>
	<path class="st25" d="M179.8,70c0,9.3-1.9,16.4-5.6,21.5c-3.8,5-9.1,7.6-15.9,7.6c-6.9,0-12.2-2.5-16-7.6s-5.7-12.2-5.7-21.5v-15
		c0-9.2,1.9-16.4,5.7-21.5c3.8-5.1,9.1-7.6,16-7.6c6.9,0,12.2,2.5,16,7.6c3.8,5.1,5.7,12.2,5.7,21.5V70z M177.2,54.9
		c0-8.3-1.6-14.7-4.9-19.4c-3.3-4.7-8-7-14.2-7c-6.2,0-10.9,2.3-14.1,7c-3.2,4.7-4.9,11.1-4.9,19.4v14.9c0,8.2,1.6,14.7,4.9,19.4
		s8,7.1,14.2,7.1c6.2,0,10.8-2.4,14.1-7.1c3.2-4.7,4.9-11.2,4.9-19.4V54.9z"/>
	<linearGradient id="SVGID_25_" gradientUnits="userSpaceOnUse" x1="247.1572" y1="52.5731" x2="102.6572" y2="120.5731">
		<stop  offset="0" style="stop-color:#ED1A3B"/>
		<stop  offset="1" style="stop-color:#5E50A1"/>
	</linearGradient>
	<path class="st26" d="M227.7,76h12.3v2.6h-12.3V98h-2.6V78.6h-34.5v-1.5l33.9-50.2h3.2V76z M194.7,76h30.4V30.6l-0.3-0.1l-3.8,6.3
		L194.7,76z"/>
</g>
</svg>
