<?xml version="1.0" encoding="utf-8"?>
<!-- Generator: Adobe Illustrator 22.1.0, SVG Export Plug-In . SVG Version: 6.00 Build 0)  -->
<svg version="1.1" id="Layer_1" xmlns="http://www.w3.org/2000/svg" xmlns:xlink="http://www.w3.org/1999/xlink" x="0px" y="0px"
	 viewBox="0 0 400 400" style="enable-background:new 0 0 400 400;" xml:space="preserve">
<style type="text/css">
	.st0{fill:url(#SVGID_1_);}
	.st1{fill:url(#SVGID_2_);}
	.st2{fill:#5E50A1;}
	.st3{fill:url(#SVGID_3_);}
</style>
<g>
	<g>
		<linearGradient id="SVGID_1_" gradientUnits="userSpaceOnUse" x1="155.3521" y1="234.9798" x2="15.8591" y2="174.9828">
			<stop  offset="0" style="stop-color:#ED1A3B"/>
			<stop  offset="1" style="stop-color:#F4AF1C"/>
		</linearGradient>
		<path class="st0" d="M163.5,366.8c-9.3-4.6-18-8.7-26.6-13c-38.6-19.5-77.2-39.1-115.8-58.6c-1.8-0.9-2.4-2.1-2.4-4.1
			c0-80.1-0.1-160.1-0.2-240.2c0-0.9,0.1-1.7,0.1-3c1.3,0.6,2.4,1.1,3.4,1.6c46.1,23.2,92.1,46.4,138.2,69.5c2.3,1.1,3,2.4,3,4.9
			c0,79.5,0.1,159,0.2,238.6C163.5,363.7,163.5,364.9,163.5,366.8z"/>
		<linearGradient id="SVGID_2_" gradientUnits="userSpaceOnUse" x1="237.0966" y1="240.2453" x2="373.5898" y2="177.2484">
			<stop  offset="0" style="stop-color:#ED1A3B"/>
			<stop  offset="1" style="stop-color:#F4AF1C"/>
		</linearGradient>
		<path class="st1" d="M237.4,366.4c0-1.5,0-2.6,0-3.8c-0.1-79.5-0.1-159-0.2-238.6c0-2.6,0.6-4,3.1-5.3
			c45.8-23.2,91.6-46.6,137.3-69.9c1.1-0.6,2.3-1.1,4-1.9c0.1,2.1,0.2,3.7,0.2,5.2c0,72.3,0,144.6-0.1,216.9
			c0,5.6,0.1,11.2-0.1,16.8c0,1.2-0.9,2.8-1.8,3.3c-47,25.7-94,51.4-141.1,77C238.5,366.2,238.3,366.2,237.4,366.4z"/>
		<path class="st2" d="M172,123.1c18.9,5,37.5,5.6,56.5,0.1c0,0.9,0,2.1,0,3.2c0.2,78.6,0.3,157.3,0.5,235.9c0,7-0.3,7.8-7.1,9
			c-14.6,2.8-29.3,3.8-44-0.3c-5.2-1.5-5.4-1.5-5.4-6.9c-0.2-24.5-0.4-48.9-0.5-73.4c-0.1-55.1-0.1-110.1-0.1-165.2
			C172,124.6,172,123.6,172,123.1z"/>
		<linearGradient id="SVGID_3_" gradientUnits="userSpaceOnUse" x1="199.4641" y1="111.5901" x2="199.4641" y2="29.0806">
			<stop  offset="0" style="stop-color:#ED1A3B"/>
			<stop  offset="1" style="stop-color:#5E50A1"/>
		</linearGradient>
		<path class="st3" d="M365.7,32.5c1.5,3,2.9,5.7,4.6,9.1c-47.9,25.4-95.8,50.7-143.9,76.1c-5.4-5.2-12.9-6.3-20.4-7
			c-9.8-1-19.5,0.1-28.7,3.6c-0.9,0.3-2.1,0.7-2.5,1.4c-2.1,3.8-4.2,1.8-6.7,0.5c-30-15.9-60-31.8-90.1-47.6
			c-15.3-8.1-30.7-16-46-24.1C31,44,30,43.4,28.6,42.7c1.4-2.9,2.8-5.7,4.4-8.9c46.6,23.8,92.6,48.1,138.7,72.4
			c0.3-0.6,0.7-1.2,1-1.9C135.6,81,98.6,57.8,61.2,34.3c1.7-2.8,3.4-5.5,5.2-8.5c1.2,0.7,2.3,1.3,3.4,2
			c38.1,23.8,76.2,47.7,114.3,71.5c1.5,0.9,3.6,1.3,5.4,1.3c7,0.1,14,0.1,21.1-0.1c1.5,0,3.3-0.5,4.6-1.3
			c33.6-21.2,67.1-42.4,100.6-63.7c5.6-3.6,11.3-7.1,17-10.6c0.3,0.1,0.5,0.2,0.6,0.3c5.5,7.7,5.4,7.7-2.6,12.8
			c-33.8,21.4-67.6,42.8-101.4,64.2c-1,0.6-1.9,1.3-2.7,1.8c0.1,0.5,0.1,0.6,0.2,0.7c0.1,0.1,0.2,0.2,0.3,0.2
			c0.2,0.1,0.4,0.2,0.6,0.1c0.3,0,0.7-0.1,0.9-0.3C274.3,80.8,319.9,56.7,365.7,32.5z"/>
	</g>
</g>
</svg>
